<svg xmlns="http://www.w3.org/2000/svg" viewBox="0 0 100 100">
  <circle cx="50" cy="50" r="45" fill="#0f3460"/>
  <circle cx="50" cy="50" r="35" fill="#1a1a2e"/>
  <polygon points="50,10 46,30 54,30" fill="#1a1a2e"/>
  <polygon points="50,90 46,70 54,70" fill="#1a1a2e"/>
  <polygon points="10,50 30,46 30,54" fill="#1a1a2e"/>
  <polygon points="90,50 70,46 70,54" fill="#1a1a2e"/>
  <polygon points="18,18 32,28 26,34" fill="#1a1a2e"/>
  <polygon points="82,82 68,72 74,66" fill="#1a1a2e"/>
  <polygon points="82,18 68,28 74,34" fill="#1a1a2e"/>
  <polygon points="18,82 32,72 26,66" fill="#1a1a2e"/>
  <circle cx="50" cy="50" r="25" fill="#0f3460"/>
  <circle cx="50" cy="50" r="18" fill="#1a1a2e"/>
  <circle cx="42" cy="42" r="4" fill="#ffffff" opacity="0.4"/>
</svg>