<svg xmlns="http://www.w3.org/2000/svg" viewBox="0 0 3840 2160" width="3840" height="2160">
  <defs>
    <linearGradient id="bgGrad" x1="0%" y1="0%" x2="100%" y2="100%">
      <stop offset="0%" style="stop-color:#0a1f3a"/>
      <stop offset="50%" style="stop-color:#0f3460"/>
      <stop offset="100%" style="stop-color:#1e40af"/>
    </linearGradient>
  </defs>
  
  <rect width="3840" height="2160" fill="url(#bgGrad)"/>
  
  <g transform="translate(1320, 380)">
    <circle cx="600" cy="600" r="500" fill="#1a1a2e"/>
    <polygon points="600,50 530,280 670,280" fill="#1a1a2e"/>
    <polygon points="600,1150 530,920 670,920" fill="#1a1a2e"/>
    <polygon points="50,600 280,530 280,670" fill="#1a1a2e"/>
    <polygon points="1150,600 920,530 920,670" fill="#1a1a2e"/>
    <polygon points="140,140 320,340 220,400" fill="#1a1a2e"/>
    <polygon points="1060,1060 880,860 980,800" fill="#1a1a2e"/>
    <polygon points="1060,140 880,340 980,400" fill="#1a1a2e"/>
    <polygon points="140,1060 320,860 220,800" fill="#1a1a2e"/>
    <circle cx="600" cy="600" r="400" fill="#0f3460"/>
    <circle cx="600" cy="600" r="300" fill="#1a1a2e"/>
    <circle cx="500" cy="500" r="60" fill="#ffffff" opacity="0.3"/>
  </g>
  
  <text x="1920" y="1300" font-family="Arial Black, sans-serif" font-size="280" fill="#ffffff" text-anchor="middle" letter-spacing="40" font-weight="900">ANGER</text>
  <text x="1920" y="1480" font-family="Arial, sans-serif" font-size="120" fill="#60a5fa" text-anchor="middle" letter-spacing="80">IMPORTS</text>
</svg>